<svg width="17" height="17" viewBox="0 0 17 17" fill="none" xmlns="http://www.w3.org/2000/svg">
<path d="M0.936542 14.3545C0.46463 14.8264 0.46463 15.5915 0.936542 16.0635C1.40845 16.5354 2.17358 16.5354 2.64549 16.0635L0.936542 14.3545ZM16.8127 1.39574C16.8127 0.728351 16.2716 0.187329 15.6043 0.187328L4.72859 0.187329C4.06121 0.187329 3.52019 0.728352 3.52019 1.39574C3.52019 2.06312 4.06121 2.60414 4.72859 2.60414L14.3959 2.60414L14.3959 12.2714C14.3959 12.9388 14.9369 13.4798 15.6043 13.4798C16.2716 13.4798 16.8127 12.9388 16.8127 12.2714L16.8127 1.39574ZM2.64549 16.0635L16.4587 2.25021L14.7498 0.541263L0.936542 14.3545L2.64549 16.0635Z" fill="white"/>
</svg>
